<?xml version="1.0" encoding="UTF-8" standalone="no"?>
<!DOCTYPE svg PUBLIC "-//W3C//DTD SVG 20010904//EN"
              "http://www.w3.org/TR/2001/REC-SVG-20010904/DTD/svg10.dtd">

<svg xmlns="http://www.w3.org/2000/svg"
     width="238.532mm" height="238.532mm"
     viewBox="0 0 676 676">
  <path id="logo-path"
        fill="none" stroke="rgb(108,172,220)" stroke-width="6"
        d="M 133.00,395.00
           C 133.00,395.00 128.42,380.00 128.42,380.00
             128.42,380.00 118.88,345.00 118.88,345.00
             110.93,311.47 105.50,277.25 101.84,243.00
             101.84,243.00 98.17,196.00 98.17,196.00
             99.25,185.93 103.99,177.71 112.00,171.53
             122.64,163.32 127.80,167.34 128.00,157.00
             128.00,157.00 128.00,132.00 128.00,132.00
             128.17,119.85 135.54,118.98 145.00,114.25
             145.00,114.25 191.00,91.75 191.00,91.75
             196.45,89.03 209.69,81.55 215.00,81.11
             217.30,80.91 219.90,81.11 221.99,82.17
             226.17,84.32 235.17,96.71 238.60,101.00
             240.85,103.81 244.03,109.04 248.01,108.90
             250.28,108.82 267.63,100.77 271.00,99.23
             271.00,99.23 308.00,82.69 308.00,82.69
             314.52,79.70 324.19,74.69 331.00,73.46
             344.78,70.98 354.99,76.59 367.00,82.22
             367.00,82.22 409.00,101.00 409.00,101.00
             409.00,101.00 427.00,108.75 427.00,108.75
             431.84,109.63 434.79,104.26 437.40,101.00
             440.83,96.71 449.83,84.32 454.01,82.17
             456.10,81.11 458.70,80.91 461.00,81.11
             466.22,81.55 477.78,88.14 483.00,90.75
             483.00,90.75 529.00,113.25 529.00,113.25
             533.64,115.57 544.15,119.78 546.55,124.10
             548.20,127.08 547.99,130.70 548.00,134.00
             548.00,134.00 548.00,157.00 548.00,157.00
             548.20,167.34 553.36,163.32 564.00,171.53
             572.01,177.71 576.75,185.93 577.83,196.00
             577.83,196.00 574.16,243.00 574.16,243.00
             570.50,277.25 565.07,311.47 557.12,345.00
             557.12,345.00 547.58,380.00 547.58,380.00
             547.58,380.00 543.00,395.21 543.00,395.21
             545.32,395.00 549.92,394.86 552.00,395.21
             565.38,399.10 557.20,414.00 554.00,422.00
             544.77,445.09 534.08,463.58 519.98,484.00
             516.40,489.17 508.60,500.96 503.00,503.11
             500.34,504.13 496.83,504.00 494.00,504.00
             490.95,504.00 481.48,503.66 479.17,504.60
             476.70,505.60 472.10,510.89 470.00,513.00
             470.00,513.00 450.00,532.72 450.00,532.72
             426.70,553.25 402.75,571.53 376.00,587.40
             364.26,594.36 352.05,603.00 338.00,603.00
             323.95,603.00 311.74,594.36 300.00,587.40
             273.25,571.53 249.30,553.25 226.00,532.72
             226.00,532.72 206.00,513.00 206.00,513.00
             203.90,510.89 199.30,505.60 196.83,504.60
             194.37,503.60 183.38,504.04 180.00,504.00
             177.23,503.96 174.56,503.94 172.00,502.69
             167.24,500.34 159.98,489.65 156.72,485.00
             143.97,466.83 132.55,447.52 124.01,427.00
             122.19,422.62 116.30,408.98 116.37,405.00
             116.54,395.14 125.82,395.00 133.00,395.00 Z" />
</svg>
